<svg width="104" height="36" viewBox="0 0 104 36" fill="none" xmlns="http://www.w3.org/2000/svg">
<g clip-path="url(#clip0_10777_3542)">
<path d="M93.069 35.9538C96.5135 35.9538 99.1901 34.9592 101.1 32.9506C103.011 30.9429 103.947 28.1606 103.947 24.5166C103.947 20.872 103.003 18.0241 101.1 16.0157C99.1988 14.0073 96.5135 13.0332 93.069 13.0332C89.6236 13.0332 86.9366 14.0274 85.0368 16.0157C83.1379 18.004 82.1897 20.8519 82.1897 24.5166C82.1897 28.1808 83.1352 30.9851 85.0368 32.9735C86.9392 34.9619 89.6009 35.9538 93.069 35.9538ZM93.069 31.5617C88.9659 31.5617 86.99 29.3066 86.99 24.5166C86.99 19.6801 88.9659 17.4511 93.069 17.4511C97.1713 17.4511 99.1245 19.6801 99.1245 24.5166C99.1245 29.2864 97.1284 31.5617 93.069 31.5617Z" fill="white"/>
<path d="M63.3369 29.015C60.5151 31.9258 61.3128 36.0891 64.8833 35.9509H78.7768C80.0521 35.9509 80.6897 35.3101 80.6897 34.0286V33.2954C80.6897 32.0156 80.0521 31.3748 78.7768 31.373H68.6156C68.0007 31.373 67.8415 31.0861 68.2054 30.7314L78.9648 19.95C80.3285 18.4602 80.8752 16.6753 80.6241 15.3488C80.374 14.0223 79.1756 13.0338 77.4446 13.0338H63.545C62.2689 13.0109 61.6347 13.6527 61.6347 14.9363V15.6438C61.6347 16.9274 62.2715 17.5692 63.545 17.5692H73.715C74.2844 17.5692 74.4637 17.8557 74.1243 18.231L63.3369 29.015Z" fill="white"/>
<path d="M57.8419 13.0367C48.5829 12.8705 47.202 13.6928 46.9373 19.3828V34.0515C46.9373 34.3015 46.9862 34.5497 47.0814 34.7803C47.1767 35.0118 47.3162 35.2213 47.492 35.3982C47.6678 35.5742 47.8766 35.7151 48.1063 35.8101C48.336 35.9052 48.5821 35.9545 48.8306 35.9545H50.0004C50.2488 35.9545 50.4955 35.9052 50.7246 35.8101C50.9547 35.7151 51.1637 35.5742 51.3395 35.3982C51.5154 35.2213 51.6544 35.0118 51.7498 34.7803C51.8451 34.5497 51.8941 34.3015 51.8941 34.0515V19.9501C51.8862 19.4973 51.909 19.0445 51.9623 18.5948C51.9999 18.3189 52.132 18.065 52.3367 17.8775C52.5414 17.6899 52.8046 17.5808 53.081 17.5692H57.8078C59.1828 17.5692 59.8686 16.9131 59.8686 15.6439V14.9161C59.8686 13.6699 59.1715 13.0167 57.8419 13.0367Z" fill="white"/>
<path d="M14.0502 28.7582C13.6914 29.8611 13.3583 30.5573 13.0452 30.8953C12.8853 31.0591 12.6934 31.1876 12.4817 31.2729C12.27 31.3583 12.0431 31.3988 11.8152 31.3909C11.5974 31.3979 11.3807 31.3574 11.1802 31.2721C10.9796 31.1867 10.7999 31.0582 10.6536 30.8953C10.3176 30.5573 9.98168 29.8611 9.62577 28.7582L5.15867 14.5879C4.84833 13.5535 4.15366 13.0378 3.0575 13.0378H1.78484C0.421117 13.0378 -0.208131 13.8459 0.218977 15.1723L5.11599 29.884C5.91886 32.2447 6.79293 33.8414 7.7068 34.6749C8.62076 35.5084 10.0101 35.9556 11.8209 35.9556C13.6317 35.9556 15.0381 35.5287 15.9776 34.6749C16.9172 33.8211 17.7657 32.2447 18.54 29.884L23.4656 15.1723C23.8898 13.8459 23.2634 13.0378 21.8996 13.0378H20.6269C19.5309 13.015 18.839 13.5307 18.503 14.5879L14.0502 28.7582Z" fill="white"/>
<path d="M43.583 24.8916C44.3716 24.1407 44.7674 22.949 44.7674 21.3361C44.7674 18.7089 43.9332 16.6546 42.242 15.1992C40.5508 13.7437 38.1849 13.0332 35.1327 13.0332C28.015 13.0332 24.2056 17.1187 24.2056 24.5166C24.2056 28.2407 25.1935 31.074 27.1694 33.0166C28.8208 34.6784 30.9988 35.6502 33.6637 35.9107L34.1506 35.9503C34.4836 35.9732 34.8196 35.9847 35.1641 35.9847H41.6669C41.729 35.9679 41.7899 35.9477 41.8491 35.9222C42.8398 35.7901 43.3382 35.1573 43.3382 34.028V33.2948C43.3382 32.015 42.7013 31.3742 41.4277 31.3724C41.4277 31.3724 35.5883 31.5731 33.6579 31.3724C31.329 31.1286 29.9083 29.5672 29.3076 27.3869L39.2468 26.35C41.3423 26.1291 42.7687 25.6424 43.583 24.8916ZM29.0115 23.1039C29.3617 19.1071 31.3803 17.3737 35.1327 17.3737C38.4041 17.3508 40.0497 18.5427 40.0497 20.9063C40.0497 21.7658 39.765 22.0094 38.1849 22.187L29.0115 23.1039Z" fill="white"/>
<path fill-rule="evenodd" clip-rule="evenodd" d="M92.8924 0.0513109L92.4236 0.051839L91.8874 0.0569441L89.782 0.0542155C89.5992 0.0533353 89.4182 0.0723475 89.2397 0.110988C89.0762 0.146196 88.9143 0.187389 88.7534 0.23448L88.7464 0.23712C88.6519 0.264582 88.5592 0.293805 88.4683 0.326196C87.2953 0.719643 86.2483 1.41922 85.4322 2.35337C85.3386 2.46454 85.2459 2.57826 85.1541 2.69445C84.9617 2.94539 84.7858 3.20901 84.6284 3.48337C83.7633 4.98745 83.4817 6.76007 83.8359 8.46079C83.8604 8.57935 83.8884 8.69774 83.919 8.81542C83.9269 8.84561 83.9356 8.8758 83.9444 8.90432C83.9505 8.92351 83.9593 8.95713 83.9671 8.98996C83.9715 9.00598 83.9759 9.02182 83.9794 9.03564L83.9899 9.0742C84.017 9.16195 84.045 9.24927 84.0756 9.33685C84.0843 9.36281 84.0948 9.38931 84.1045 9.41562C84.1158 9.44705 84.1281 9.47829 84.1377 9.50848C84.1788 9.61648 84.2208 9.72325 84.2671 9.82896C84.2724 9.84067 84.2794 9.85123 84.2881 9.85986C84.3852 9.95633 84.4946 10.0392 84.6135 10.1064C84.6669 10.1376 84.7229 10.1655 84.7797 10.1897C84.8304 10.2116 84.8856 10.2224 84.9407 10.2214L85.9605 10.2231L92.8356 10.2224L93.7846 10.2191L94.2788 10.2188C94.822 10.2838 95.3713 10.2838 95.9144 10.219C96.9247 10.0999 97.8974 9.76119 98.765 9.22638C99.6327 8.69149 100.374 7.97325 100.94 7.12131C101.006 7.02158 101.072 6.91965 101.134 6.8157L101.212 6.67918C101.297 6.53026 101.373 6.37807 101.446 6.22492L101.47 6.17254C101.91 5.22492 102.132 4.19034 102.121 3.14485L102.124 3.14071L102.123 3.11826C102.119 2.89417 102.108 2.66576 102.082 2.44624C102.089 2.44324 102.088 2.4193 102.087 2.39501C102.086 2.37027 102.085 2.34536 102.093 2.34184C102.023 1.59016 101.826 0.855986 101.512 0.170665L101.419 0.00976562L92.8924 0.0513109ZM87.9784 4.29324C87.3137 4.96685 86.9192 5.86351 86.8711 6.81157C86.865 6.91578 86.8641 7.01956 86.8711 7.12668L87.06 7.12562L89.077 7.1265L89.2616 7.12298L89.3281 7.12351L94.5403 7.12659C95.1124 7.17746 95.6888 7.10238 96.2302 6.90663C97.0253 6.66193 97.7198 6.16357 98.2087 5.48669C98.6977 4.80991 98.9548 3.99133 98.9409 3.1547L98.8455 3.15497H91.2681L90.9392 3.15233L90.8054 3.15242C90.7792 3.15286 90.7529 3.15303 90.7276 3.15321C90.6908 3.15338 90.6541 3.15365 90.6182 3.15444L90.6034 3.15488C89.7112 3.17794 88.8549 3.51242 88.1805 4.10091L88.1472 4.13084C88.0895 4.18242 88.0327 4.23629 87.9784 4.29324ZM102.027 2.50063L102.029 2.49561L102.025 2.49192C102.014 2.49817 102.002 2.50336 101.991 2.5075L101.993 2.51533C101.999 2.51383 102.004 2.51155 102.01 2.50864L102.027 2.50063Z" fill="white"/>
</g>
<defs>
<clipPath id="clip0_10777_3542">
<rect width="104" height="36" fill="white"/>
</clipPath>
</defs>
</svg>
