<svg width="35" height="36" viewBox="0 0 35 36" fill="none" xmlns="http://www.w3.org/2000/svg">
<g clip-path="url(#clip0_10573_2840)">
<path d="M32.0385 29.1534C31.7866 31.028 30.5251 32.6489 28.7597 33.3695C27.8946 33.729 26.9573 33.8382 26.02 33.729C25.1197 33.6215 24.2177 33.3326 23.2821 32.7934C21.9853 32.0711 20.6869 30.9558 19.1735 29.2979C21.552 26.3785 22.9932 23.7128 23.534 21.3343C23.786 20.2172 23.823 19.2077 23.7138 18.2704C23.5693 17.3701 23.2451 16.5403 22.7412 15.8197C21.6242 14.1988 19.7496 13.2615 17.66 13.2615C15.5704 13.2615 13.6959 14.234 12.5788 15.8197C12.0749 16.5403 11.7507 17.3701 11.6063 18.2704C11.4618 19.2077 11.4988 20.2525 11.786 21.3343C12.3269 23.7128 13.8034 26.4155 16.1466 29.3331C14.6684 30.991 13.3364 32.1081 12.038 32.8287C11.1007 33.3695 10.2003 33.6585 9.3 33.766C8.37111 33.8701 7.43214 33.7458 6.56204 33.4065C4.79664 32.6859 3.53516 31.0633 3.2832 29.1904C3.1757 28.29 3.24793 27.3897 3.60739 26.3802C3.71489 26.019 3.8963 25.6596 4.07603 25.2279C4.32799 24.6517 4.61691 24.0386 4.90414 23.4255L4.94109 23.3533C7.4271 17.9832 10.0945 12.5056 12.8694 7.17245L12.9769 6.95577C13.2658 6.41657 13.5531 5.83875 13.842 5.29787C14.1309 4.72172 14.4551 4.18085 14.8515 3.71221C15.6091 2.84714 16.6169 2.3785 17.7339 2.3785C18.851 2.3785 19.8605 2.84714 20.6163 3.71221C21.0128 4.18085 21.337 4.72172 21.6259 5.29787C21.9148 5.83875 22.202 6.41489 22.4909 6.95409L22.6001 7.17077C25.3381 12.5392 28.0055 18.0168 30.4915 23.3869V23.4222C30.7804 23.9983 31.0324 24.6484 31.3196 25.2245C31.4993 25.6579 31.6807 26.0174 31.7882 26.3768C32.0755 27.3158 32.183 28.2161 32.0385 29.1534ZM17.66 27.4586C15.7149 25.0078 14.4534 22.7016 14.02 20.7564C13.8403 19.9267 13.8034 19.206 13.9125 18.5577C13.9848 17.9815 14.2015 17.4759 14.4887 17.0442C15.174 16.0717 16.3263 15.4586 17.66 15.4586C18.9937 15.4586 20.183 16.0364 20.8314 17.0442C21.1203 17.4776 21.3353 17.9815 21.4075 18.5577C21.515 19.206 21.4797 19.9636 21.3 20.7564C20.8683 22.6663 19.6068 24.9726 17.66 27.4586ZM33.9131 25.5857C33.7334 25.154 33.552 24.6853 33.3722 24.2889C33.0833 23.6405 32.7961 23.0274 32.5424 22.4513L32.5072 22.416C30.0212 17.0106 27.3538 11.533 24.5436 6.12766L24.4361 5.91097C24.1471 5.3701 23.8599 4.79395 23.571 4.21781C23.2099 3.56943 22.8504 2.8841 22.2742 2.23572C21.1203 0.792833 19.4624 0 17.697 0C15.8946 0 14.2737 0.792833 13.0828 2.16181C12.5419 2.81019 12.1455 3.49552 11.786 4.1439C11.4971 4.72005 11.2099 5.29619 10.9209 5.83707L10.8134 6.05207C8.03852 11.4574 5.33583 16.9351 2.84983 22.3404L2.81456 22.4127C2.5626 22.9888 2.27368 23.6019 1.98477 24.2503C1.7916 24.6769 1.61187 25.1103 1.44389 25.547C0.975249 26.8807 0.830793 28.1422 1.01052 29.439C1.40694 32.1417 3.20929 34.4127 5.69529 35.4205C6.63258 35.8169 7.60515 35.9966 8.61467 35.9966C8.90358 35.9966 9.26304 35.9614 9.55196 35.9244C10.7412 35.78 11.9657 35.3852 13.155 34.6999C14.6331 33.8718 16.0374 32.6825 17.6231 30.9524C19.2087 32.6825 20.6499 33.8718 22.0912 34.6999C23.2804 35.3852 24.5049 35.78 25.6942 35.9244C25.9831 35.9614 26.3426 35.9966 26.6315 35.9966C27.641 35.9966 28.6488 35.8169 29.5508 35.4205C32.0738 34.411 33.8392 32.1047 34.2356 29.439C34.5245 28.1792 34.3801 26.9194 33.9131 25.5857Z" fill="#E0565B"/>
</g>
<defs>
<clipPath id="clip0_10573_2840">
<rect width="33.4485" height="36" fill="white" transform="translate(0.936523)"/>
</clipPath>
</defs>
</svg>
