<svg width="44" height="36" viewBox="0 0 44 36" fill="none" xmlns="http://www.w3.org/2000/svg">
<g clip-path="url(#clip0_10573_2818)">
<path d="M21.2712 0.0019726C23.5456 0.0673973 25.5998 1.40252 26.5841 3.46866L30.49 11.6852L30.5528 11.5264C30.7079 11.1169 30.8351 10.6973 30.9333 10.2705L30.9879 10.0161C31.6461 6.7251 34.8449 4.59518 38.1419 5.2463C38.925 5.40273 39.6696 5.71191 40.3332 6.15618C40.9967 6.60046 41.5663 7.17111 42.0092 7.83555C42.4522 8.49999 42.7599 9.2452 42.9148 10.0286C43.0697 10.812 43.0688 11.6182 42.912 12.4013C42.0347 16.7824 39.7731 20.8484 36.5291 24.0697L36.4264 24.1695L37.7957 27.0485C39.385 30.3904 37.7383 34.4298 34.2779 35.5634L34.1217 35.6122L34.0026 35.6482C33.4731 35.7973 32.9257 35.8732 32.3756 35.8739C31.2257 35.874 30.0993 35.5482 29.127 34.9342C28.1547 34.3203 27.3763 33.4434 26.882 32.4051L25.825 30.183L25.5583 30.249C24.1295 30.5867 22.6803 30.7738 21.2304 30.8025L20.8351 30.8065C19.4398 30.8065 18.0215 30.6442 16.6045 30.3298L16.3251 30.2647L15.3097 32.3995C14.625 33.839 13.4022 34.952 11.9048 35.4985L11.724 35.5613C10.9441 35.8184 10.1201 35.9149 9.30188 35.8447C8.48366 35.7745 7.68816 35.5392 6.96343 35.1529C4.07685 33.6186 2.97614 30.0265 4.38458 27.0595L5.6454 24.4082L5.53526 24.3013C3.80677 22.5962 2.43647 20.6581 1.52743 18.5747L1.40628 18.2898L1.38885 18.2436C0.137729 15.1328 1.64019 11.5918 4.74902 10.3332C7.18748 9.34603 9.89061 10.0548 11.5529 11.9076L11.5841 11.9435L15.6026 3.49052C16.079 2.47235 16.8293 1.60678 17.7695 0.990637C18.7097 0.374491 19.8028 0.0320603 20.9265 0.00164384L21.0966 0L21.2712 0.0019726Z" fill="white"/>
<path d="M15.269 27.9524L18.8683 20.3796C16.1191 19.7957 13.3531 18.0951 11.7886 16.0264L8.0249 23.939C10.1164 25.7132 12.6275 27.1078 15.269 27.9524Z" fill="#1A007F"/>
<path d="M30.2897 15.7998C28.4815 18.0162 25.9705 19.66 23.2837 20.3005L26.8717 27.8506C29.4905 26.9662 31.9391 25.5379 34.0536 23.7071L30.2897 15.7998Z" fill="#4E000A"/>
<path d="M8.02476 23.9396L6.1429 27.8962C5.18487 29.9084 5.90471 32.3855 7.87731 33.4341C9.96893 34.545 12.5424 33.6779 13.5513 31.5634L15.2688 27.9529C12.6166 27.0978 10.1562 25.7348 8.02476 23.9396Z" fill="#1A007F"/>
<path d="M37.7605 7.16147C37.2283 7.05491 36.6803 7.05425 36.1478 7.15952C35.6154 7.2648 35.1088 7.47395 34.6572 7.77502C34.2056 8.0761 33.8177 8.46321 33.5157 8.91423C33.2138 9.36525 33.0036 9.87135 32.8972 10.4036C32.5004 12.3877 31.5708 14.2354 30.2898 15.8056L34.0479 23.7185C37.5169 20.7087 40.0788 16.6106 40.9972 12.0248C41.445 9.7801 39.9939 7.6035 37.7605 7.16147Z" fill="#FF9396"/>
<path d="M23.2837 20.2999C22.4789 20.4925 21.6569 20.5946 20.835 20.5946C20.1946 20.5946 19.5315 20.521 18.8682 20.3793C16.119 19.7954 13.3529 18.0948 11.7885 16.0261C11.3973 15.5102 11.08 14.9717 10.8589 14.4218C10.003 12.3075 7.59393 11.2874 5.47963 12.1376C3.36533 12.9935 2.34533 15.4026 3.19536 17.5167C4.16456 19.92 5.87645 22.125 8.02478 23.9388C10.1541 25.7338 12.6127 27.0969 15.2631 27.9521C17.0826 28.5358 18.9701 28.859 20.8294 28.859C22.8926 28.859 24.9275 28.5018 26.8661 27.85L23.2837 20.2999Z" fill="#002DC8"/>
<path d="M36.0317 27.8786L34.0479 23.7069L30.2898 15.7995L30.2842 15.8053C30.2842 15.8053 30.2842 15.7995 30.2898 15.7995L24.8257 4.30421C24.4903 3.59896 23.9619 3.00317 23.3018 2.58586C22.6416 2.16855 21.8768 1.9468 21.0958 1.94629C19.503 1.94629 18.0519 2.86454 17.3661 4.30437L11.7942 16.0264C13.3586 18.0952 16.1247 19.7957 18.8739 20.3796L20.6763 16.5932C20.8465 16.236 21.3565 16.236 21.5267 16.5932L23.2895 20.3002H23.3009H23.2894L26.8775 27.8503L28.6404 31.5574C28.9755 32.264 29.5046 32.8608 30.1659 33.2783C30.8272 33.6958 31.5936 33.9167 32.3757 33.9154C32.7442 33.9154 33.1126 33.8645 33.4754 33.7624C35.9638 33.0764 37.1428 30.214 36.0317 27.8786Z" fill="#FF536A"/>
</g>
<defs>
<clipPath id="clip0_10573_2818">
<rect width="42.0822" height="36" fill="white" transform="translate(0.948242)"/>
</clipPath>
</defs>
</svg>
