<svg width="39" height="36" viewBox="0 0 39 36" fill="none" xmlns="http://www.w3.org/2000/svg">
<path d="M27.8352 8.43724C27.8352 13.095 24.0588 16.8745 19.401 16.8745C14.7403 16.8745 10.9637 13.0979 10.9637 8.43724C10.9637 3.77655 14.7403 0 19.401 0C24.0588 0 27.8352 3.77655 27.8352 8.43724ZM8.44016 18.9822C3.78241 18.9822 0.00292969 22.7588 0.00292969 27.4166C0.00292969 32.0744 3.77948 35.8538 8.44016 35.8538C13.1008 35.8538 16.8774 32.0772 16.8774 27.4166C16.8774 22.7588 13.1008 18.9822 8.44016 18.9822ZM30.3588 18.9822C25.6982 18.9822 21.9216 22.7588 21.9216 27.4196C21.9216 32.0802 25.6982 35.8568 30.3588 35.8568C35.0166 35.8568 38.7961 32.0802 38.7961 27.4196C38.7961 22.7588 35.0195 18.9822 30.3588 18.9822Z" fill="#F06A6A"/>
</svg>
