<svg width="176" height="36" viewBox="0 0 176 36" fill="none" xmlns="http://www.w3.org/2000/svg">
<g clip-path="url(#clip0_10573_2828)">
<path d="M32.6633 1.53589C28.7457 -0.909992 23.5574 -0.338227 18.941 2.57354C14.3351 -0.338227 9.15743 -0.92058 5.22919 1.53589C-0.986103 5.42177 -1.73787 15.4171 3.54566 23.8771C7.44213 30.1029 13.5304 33.7559 18.9515 33.6924C24.3727 33.7559 30.461 30.1029 34.3468 23.8771C39.6304 15.4171 38.8786 5.42177 32.6633 1.53589ZM6.40448 22.0877C5.31594 20.3611 4.49488 18.4798 3.96919 16.5077C3.50122 14.7952 3.32229 13.0167 3.43978 11.2453C3.67272 8.12177 4.94331 5.69707 7.0186 4.39471C9.0939 3.10295 11.8257 3.01824 14.748 4.18295C15.1927 4.36295 15.6268 4.56413 16.0398 4.78648C14.421 6.26267 13.0137 7.95509 11.8574 9.81589C8.64919 14.9512 7.6539 20.6477 8.78684 25.2006C7.89632 24.2366 7.09868 23.1908 6.40448 22.0771V22.0877ZM33.9339 16.5077C33.4074 18.4796 32.5864 20.3607 31.4986 22.0877C30.8049 23.205 30.0072 24.2544 29.1162 25.2218C30.1115 21.1347 29.4339 16.1371 26.9774 11.4571C26.94 11.3793 26.8865 11.3103 26.8206 11.2546C26.7546 11.1989 26.6777 11.1577 26.5948 11.1337C26.5119 11.1097 26.4248 11.1035 26.3393 11.1154C26.2538 11.1274 26.1718 11.1572 26.0986 11.2029L18.4433 15.9888C18.3033 16.0762 18.2035 16.2155 18.1658 16.3762C18.1281 16.5369 18.1556 16.7059 18.2421 16.8465L19.3645 18.6465C19.4086 18.7164 19.4662 18.7769 19.5339 18.8244C19.6016 18.8718 19.678 18.9054 19.7588 18.9232C19.8395 18.9409 19.923 18.9424 20.0044 18.9276C20.0857 18.9129 20.1634 18.8821 20.2327 18.8371L25.188 15.7453C25.9886 17.884 26.3208 20.1696 26.1621 22.4477C25.9186 25.5712 24.648 28.0065 22.5833 29.2982C21.5144 29.9524 20.2893 30.3072 19.0362 30.3253H18.8774C17.6244 30.3072 16.3992 29.9524 15.3304 29.2982C13.2551 28.0065 11.9845 25.5712 11.7515 22.4477C11.6346 20.6763 11.8136 18.8979 12.281 17.1853C13.3531 13.226 15.5705 9.67154 18.6551 6.96766C19.99 5.7959 21.5108 4.85477 23.1551 4.18295C26.0562 3.02883 28.8092 3.10295 30.8845 4.39471C32.9492 5.69707 34.2198 8.13236 34.4527 11.2559C34.5719 13.0231 34.3965 14.7979 33.9339 16.5077Z" fill="white"/>
<path d="M78.447 13.6593C77.4346 13.6439 76.4292 13.8294 75.489 14.2053C74.5488 14.5811 73.6925 15.1397 72.9697 15.8487C72.2469 16.5577 71.6719 17.4031 71.278 18.3359C70.8842 19.2687 70.6793 20.2703 70.6752 21.2828C70.6752 25.5181 74.1481 28.811 78.447 28.811C79.4564 28.8364 80.4608 28.6606 81.4017 28.294C82.3426 27.9274 83.2012 27.3773 83.9274 26.6757C84.6536 25.9741 85.233 25.135 85.6319 24.2074C86.0307 23.2797 86.241 22.2819 86.2505 21.2722C86.2505 17.0052 82.7881 13.6487 78.447 13.6487V13.6593ZM78.447 24.8299C76.467 24.8299 74.9634 23.231 74.9634 21.2404C74.9634 19.2499 76.467 17.6404 78.4576 17.6404C80.4693 17.6404 81.9728 19.271 81.9728 21.251C81.9828 21.7193 81.8987 22.1847 81.7257 22.6199C81.5527 23.0551 81.2942 23.4513 80.9655 23.7849C80.6368 24.1185 80.2446 24.3829 79.812 24.5624C79.3795 24.7418 78.9153 24.8328 78.447 24.8299ZM95.9387 7.79339H88.0399C87.9538 7.7905 87.868 7.80516 87.7878 7.83646C87.7075 7.86776 87.6345 7.91505 87.5731 7.97547C87.5117 8.03588 87.4632 8.10815 87.4306 8.18788C87.398 8.26761 87.382 8.35314 87.3834 8.43927V27.7204C87.376 27.8091 87.3873 27.8984 87.4165 27.9824C87.4458 28.0664 87.4924 28.1434 87.5533 28.2083C87.6142 28.2731 87.688 28.3245 87.77 28.359C87.852 28.3936 87.9404 28.4105 88.0293 28.4087H95.9387C102.27 28.4087 106.665 24.2052 106.665 18.0746C106.665 11.9122 102.27 7.80397 95.9387 7.80397V7.79339ZM96.1293 24.3322H91.7987V11.8593H96.1293C99.6234 11.8593 102.048 14.4746 102.048 18.064C102.048 21.6004 99.634 24.3322 96.1293 24.3322ZM122.409 14.0616H119.445C119.275 14.0697 119.115 14.1421 118.997 14.264C118.879 14.386 118.812 14.5484 118.809 14.7181V15.5969C118.142 14.4746 116.607 13.6487 114.712 13.6487C111.006 13.6487 107.522 16.571 107.522 21.2193C107.522 25.8463 110.963 28.811 114.68 28.811C116.586 28.811 118.153 27.9851 118.83 26.8734V27.784C118.833 27.946 118.899 28.1006 119.013 28.2152C119.128 28.3298 119.283 28.3954 119.445 28.3981H122.409C122.492 28.4025 122.575 28.3897 122.653 28.3607C122.73 28.3317 122.801 28.287 122.861 28.2293C122.92 28.1717 122.967 28.1024 122.999 28.0258C123.031 27.9492 123.046 27.8669 123.045 27.784V14.7181C123.047 14.6329 123.033 14.548 123.002 14.4685C122.972 14.3889 122.925 14.3164 122.866 14.2551C122.807 14.1939 122.736 14.1452 122.657 14.1119C122.579 14.0787 122.495 14.0616 122.409 14.0616ZM115.495 24.8616C113.526 24.8616 112.043 23.3475 112.043 21.251C112.043 19.1546 113.526 17.6404 115.495 17.6404C117.465 17.6404 118.936 19.144 118.936 21.2404C118.936 23.3475 117.454 24.8616 115.495 24.8616ZM139.107 7.79339H136.121C135.954 7.79336 135.794 7.85884 135.676 7.9757C135.557 8.09256 135.489 8.25144 135.486 8.41809V15.5334C134.798 14.4746 133.241 13.6487 131.303 13.6487C127.619 13.6487 124.209 16.571 124.209 21.2193C124.209 25.8463 127.65 28.811 131.356 28.811C133.262 28.811 134.713 27.9851 135.507 26.8734V27.784C135.507 28.1228 135.782 28.3981 136.121 28.3981H139.096C139.178 28.401 139.26 28.3872 139.336 28.3575C139.413 28.3277 139.482 28.2828 139.541 28.2253C139.599 28.1679 139.645 28.0991 139.676 28.0232C139.707 27.9473 139.723 27.8659 139.721 27.784V8.41809C139.724 8.33526 139.71 8.2527 139.68 8.17557C139.649 8.09844 139.603 8.02838 139.545 7.96977C139.486 7.91116 139.416 7.86525 139.339 7.83491C139.262 7.80456 139.179 7.79043 139.096 7.79339H139.107ZM132.182 24.8934C130.223 24.8934 128.752 23.3687 128.752 21.251C128.752 19.1334 130.234 17.5981 132.182 17.5981C134.141 17.5981 135.613 19.1228 135.613 21.251C135.613 23.3687 134.141 24.8934 132.182 24.8934ZM155.783 7.79339H152.819C152.734 7.79056 152.65 7.80456 152.572 7.83456C152.493 7.86456 152.421 7.90996 152.36 7.96811C152.298 8.02626 152.25 8.096 152.216 8.17326C152.182 8.25052 152.164 8.33375 152.162 8.41809V15.5334C151.485 14.4746 149.928 13.6487 147.991 13.6487C144.306 13.6487 140.896 16.571 140.896 21.2193C140.896 25.8463 144.338 28.811 148.043 28.811C149.949 28.811 151.4 27.9851 152.194 26.8734V27.784C152.197 27.9478 152.264 28.104 152.381 28.2189C152.498 28.3338 152.655 28.3981 152.819 28.3981H155.783C155.864 28.3995 155.945 28.3846 156.02 28.3543C156.095 28.3239 156.164 28.2787 156.221 28.2214C156.278 28.1641 156.323 28.0958 156.354 28.0207C156.384 27.9455 156.399 27.865 156.398 27.784V8.41809C156.4 8.33617 156.387 8.25452 156.357 8.17812C156.327 8.10172 156.282 8.03217 156.225 7.97372C156.167 7.91526 156.099 7.86913 156.023 7.83812C155.947 7.80712 155.865 7.7919 155.783 7.79339ZM148.869 24.8934C146.9 24.8934 145.439 23.3687 145.439 21.251C145.439 19.1334 146.91 17.5981 148.869 17.5981C150.818 17.5981 152.289 19.1228 152.289 21.251C152.289 23.3687 150.828 24.8934 148.869 24.8934ZM172.058 15.0675L167.621 30.2828C166.774 32.9934 164.858 34.6134 161.882 34.6134C160.649 34.648 159.427 34.3636 158.335 33.7875C157.774 33.4699 157.308 33.1734 157.308 32.6969C157.308 32.411 157.403 32.2628 157.573 31.9875L158.452 30.664C158.706 30.2934 158.886 30.1769 159.15 30.1769C159.366 30.183 159.573 30.2571 159.743 30.3887C160.276 30.7979 160.925 31.0278 161.596 31.0452C162.507 31.0452 163.206 30.7593 163.587 29.6687L163.968 28.3981H162.168C161.723 28.3981 161.48 28.1334 161.374 27.784L157.403 15.0781C157.255 14.5699 157.393 14.0722 158.123 14.0722H161.258C161.639 14.0722 161.893 14.1993 162.073 14.7499L165.006 24.9887L167.748 14.7499C167.833 14.3899 168.066 14.0722 168.542 14.0722H171.507C172.089 14.0722 172.269 14.4746 172.058 15.0675ZM69.5634 19.5993V27.7204C69.5649 27.8098 69.5483 27.8986 69.5148 27.9815C69.4812 28.0643 69.4314 28.1396 69.3681 28.2028C69.3049 28.266 69.2297 28.3159 69.1468 28.3494C69.0639 28.383 68.9752 28.3995 68.8858 28.3981H66.4399C66.3501 28.401 66.2607 28.3855 66.1771 28.3525C66.0936 28.3195 66.0177 28.2697 65.9542 28.2062C65.8907 28.1426 65.8409 28.0668 65.8078 27.9832C65.7748 27.8997 65.7593 27.8102 65.7623 27.7204V25.5922C64.2058 27.551 61.4952 28.7899 58.4352 28.7899C52.6752 28.7899 48.1858 24.4699 48.1858 18.3075C48.1858 11.9016 53.0352 7.48633 59.1658 7.48633C63.6976 7.48633 67.3187 9.43456 68.9281 13.3522C68.9722 13.4526 68.9973 13.5603 69.0023 13.6699C69.0023 13.8604 68.8752 13.9981 68.4728 14.1357L65.614 15.2369C65.4449 15.3055 65.2564 15.3093 65.0846 15.2475C64.9286 15.1584 64.806 15.0209 64.7352 14.8557C64.2093 13.8173 63.3928 12.9542 62.3852 12.3715C61.3776 11.7887 60.2223 11.5114 59.0599 11.5734C55.407 11.5734 52.7917 14.4322 52.7917 18.1275C52.7917 21.7169 55.0152 24.6604 59.1658 24.6604C61.347 24.6604 63.0834 23.6334 63.8987 22.5004H61.3046C61.217 22.5004 61.1303 22.4832 61.0493 22.4497C60.9684 22.4161 60.8949 22.367 60.8329 22.3051C60.771 22.2431 60.7219 22.1696 60.6883 22.0887C60.6548 22.0077 60.6376 21.921 60.6376 21.8334V19.6204C60.6376 19.5328 60.6548 19.4461 60.6883 19.3652C60.7219 19.2842 60.771 19.2107 60.8329 19.1488C60.8949 19.0868 60.9684 19.0377 61.0493 19.0042C61.1303 18.9706 61.217 18.9534 61.3046 18.9534H68.8858C68.9727 18.9476 69.0599 18.9597 69.1419 18.989C69.224 19.0183 69.2991 19.0642 69.3627 19.1238C69.4262 19.1834 69.4768 19.2554 69.5114 19.3354C69.5459 19.4153 69.5636 19.5016 69.5634 19.5887V19.5993Z" fill="white"/>
</g>
<defs>
<clipPath id="clip0_10573_2828">
<rect width="175.765" height="36" fill="white" transform="translate(0.0305176)"/>
</clipPath>
</defs>
</svg>
