<svg width="36" height="36" viewBox="0 0 36 36" fill="none" xmlns="http://www.w3.org/2000/svg">
<path d="M0.440897 22.1483C0.360977 21.8066 0.767777 21.5917 1.01582 21.8398L14.1601 34.9841C14.4085 35.2325 14.1933 35.6393 13.8516 35.559C7.21862 34.0027 1.99682 28.7813 0.440897 22.1483ZM0.00061684 16.88C-0.00235205 16.9304 0.00541993 16.9809 0.0234181 17.0281C0.0414162 17.0752 0.0692298 17.118 0.105017 17.1536L18.8459 35.8956C18.9183 35.9676 19.018 36.0061 19.1195 36C19.9727 35.9464 20.8097 35.8344 21.6262 35.6663C21.9016 35.6098 21.997 35.2717 21.7983 35.073L0.927257 14.2013C0.728537 14.0029 0.390497 14.0983 0.333977 14.3737C0.164325 15.2003 0.0529306 16.0378 0.00061684 16.88ZM1.5155 10.6938C1.48646 10.7596 1.47807 10.8327 1.49144 10.9034C1.50481 10.9741 1.53931 11.0391 1.59038 11.0898L24.9097 34.4092C25.0138 34.5136 25.1711 34.5442 25.3057 34.484C25.9463 34.1987 26.5695 33.876 27.1723 33.5178C27.2185 33.4901 27.2578 33.4521 27.287 33.4068C27.3163 33.3616 27.3348 33.3103 27.3412 33.2567C27.3475 33.2032 27.3415 33.149 27.3237 33.0981C27.3059 33.0473 27.2766 33.0012 27.2382 32.9634L3.03686 8.76096C2.99905 8.72249 2.95294 8.69319 2.90206 8.67531C2.85118 8.65742 2.79687 8.65143 2.74331 8.65779C2.68976 8.66415 2.63837 8.6827 2.59309 8.712C2.5478 8.7413 2.50984 8.78059 2.4821 8.82684C2.12386 9.42965 1.80123 10.0529 1.51586 10.6934L1.5155 10.6938ZM4.55678 6.50664C4.49232 6.44284 4.45472 6.35679 4.45171 6.26614C4.4487 6.1755 4.48049 6.08714 4.54058 6.0192C7.8407 2.3256 12.6399 0 17.9826 0C27.933 0 35.9999 8.06652 35.9999 18.0173C35.9999 23.3597 33.6743 28.1592 29.9807 31.459C29.9128 31.519 29.8244 31.5508 29.7338 31.5478C29.6431 31.5448 29.5571 31.5072 29.4933 31.4428L4.55714 6.50664H4.55678Z" fill="#5E6AD2"/>
</svg>
