<svg width="37" height="36" viewBox="0 0 37 36" fill="none" xmlns="http://www.w3.org/2000/svg">
<g clip-path="url(#clip0_10573_2826)">
<path d="M0.471414 22.1483C0.391494 21.8066 0.798294 21.5917 1.04633 21.8398L14.1907 34.9841C14.4391 35.2325 14.2238 35.6393 13.8821 35.559C7.24914 34.0027 2.02733 28.7813 0.471414 22.1483ZM0.0311344 16.88C0.0281655 16.9304 0.0359375 16.9809 0.0539356 17.0281C0.0719338 17.0752 0.0997474 17.118 0.135534 17.1536L18.8764 35.8956C18.9488 35.9676 19.0485 36.0061 19.15 36C20.0032 35.9464 20.8402 35.8344 21.6567 35.6663C21.9321 35.6098 22.0275 35.2717 21.8288 35.073L0.957774 14.2013C0.759054 14.0029 0.421014 14.0983 0.364494 14.3737C0.194842 15.2003 0.0834481 16.0378 0.0311344 16.88ZM1.54601 10.6938C1.51698 10.7596 1.50859 10.8327 1.52196 10.9034C1.53532 10.9741 1.56982 11.0391 1.62089 11.0898L24.9403 34.4092C25.0443 34.5136 25.2016 34.5442 25.3363 34.484C25.9768 34.1987 26.6 33.876 27.2029 33.5178C27.249 33.4901 27.2883 33.4521 27.3175 33.4068C27.3468 33.3616 27.3653 33.3103 27.3717 33.2567C27.378 33.2032 27.3721 33.149 27.3542 33.0981C27.3364 33.0473 27.3071 33.0012 27.2687 32.9634L3.06737 8.76096C3.02957 8.72249 2.98346 8.69319 2.93258 8.67531C2.88169 8.65742 2.82739 8.65143 2.77383 8.65779C2.72027 8.66415 2.66888 8.6827 2.6236 8.712C2.57832 8.7413 2.54036 8.78059 2.51261 8.82684C2.15438 9.42965 1.83174 10.0529 1.54637 10.6934L1.54601 10.6938ZM4.58729 6.50664C4.52283 6.44284 4.48524 6.35679 4.48223 6.26614C4.47921 6.1755 4.51101 6.08714 4.57109 6.0192C7.87121 2.3256 12.6704 0 18.0131 0C27.9635 0 36.0304 8.06652 36.0304 18.0173C36.0304 23.3597 33.7048 28.1592 30.0112 31.459C29.9433 31.519 29.8549 31.5508 29.7643 31.5478C29.6736 31.5448 29.5876 31.5072 29.5238 31.4428L4.58766 6.50664H4.58729Z" fill="#5E6AD2"/>
</g>
<defs>
<clipPath id="clip0_10573_2826">
<rect width="36" height="36" fill="white" transform="translate(0.0305176)"/>
</clipPath>
</defs>
</svg>
