<svg width="87" height="36" viewBox="0 0 87 36" fill="none" xmlns="http://www.w3.org/2000/svg">
<g clip-path="url(#clip0_10573_2833)">
<path d="M86.9311 18.5181C86.9311 12.3933 83.9643 7.56034 78.2942 7.56034C72.5998 7.56034 69.1545 12.3934 69.1545 18.4704C69.1545 25.6717 73.222 29.3084 79.0596 29.3084C81.9068 29.3084 84.06 28.6624 85.6869 27.7533V22.9682C84.0602 23.7817 82.1939 24.2842 79.8253 24.2842C77.5045 24.2842 75.447 23.4707 75.1839 20.6475H86.8834C86.8834 20.3363 86.9311 19.0923 86.9311 18.5181ZM75.112 16.2453C75.112 13.5417 76.763 12.4171 78.2703 12.4171C79.7296 12.4171 81.2849 13.5417 81.2849 16.2453H75.112ZM59.9197 7.56034C57.5748 7.56034 56.0675 8.66086 55.2303 9.42662L54.9191 7.94321H49.6557V35.8399L55.6369 34.5719L55.6609 27.8011C56.5222 28.4232 57.7901 29.3084 59.8956 29.3084C64.1783 29.3084 68.0781 25.8631 68.0781 18.2789C68.0542 11.3405 64.1065 7.56034 59.9195 7.56034M58.4839 24.0448C57.0723 24.0448 56.2347 23.5425 55.6608 22.9204L55.6367 14.044C56.2588 13.3503 57.1201 12.8719 58.4839 12.8719C60.6611 12.8719 62.1683 15.3121 62.1683 18.4463C62.1683 21.6523 60.6849 24.0448 58.4839 24.0448ZM41.4253 6.14877L47.4306 4.8568V0L41.4253 1.26807V6.14877ZM41.4253 7.9671H47.4306V28.9016H41.4253V7.9671ZM34.9895 9.7375L34.6066 7.9671H29.4388V28.9016H35.4202V14.7141C36.8316 12.8719 39.2242 13.2068 39.9659 13.4699V7.9671C39.2003 7.67994 36.4011 7.15357 34.9895 9.7375ZM23.0268 2.77536L17.189 4.01938L17.1652 23.1835C17.1652 26.7246 19.8209 29.3323 23.3619 29.3323C25.3237 29.3323 26.7592 28.9734 27.5486 28.5428V23.686C26.7832 23.997 23.0029 25.0976 23.0029 21.5566V13.0631H27.5486V7.9671H23.0029L23.0268 2.77536ZM6.85334 14.044C6.85334 13.1111 7.61893 12.7521 8.88717 12.7521C10.7053 12.7521 13.0021 13.3025 14.8204 14.2834V8.66086C12.8347 7.87138 10.8729 7.56034 8.88717 7.56034C4.0302 7.56034 0.800293 10.0965 0.800293 14.3314C0.800293 20.9345 9.89181 19.8819 9.89181 22.7291C9.89181 23.8295 8.93495 24.1885 7.59504 24.1885C5.60932 24.1885 3.07317 23.3749 1.0634 22.2744V27.9686C3.2885 28.9257 5.53749 29.3323 7.59504 29.3323C12.5715 29.3323 15.9928 26.8681 15.9928 22.5855C15.9689 15.4558 6.85334 16.7237 6.85334 14.044Z" fill="white"/>
</g>
<defs>
<clipPath id="clip0_10573_2833">
<rect width="86.1413" height="36" fill="white" transform="translate(0.795166)"/>
</clipPath>
</defs>
</svg>
